<?xml version="1.0" encoding="UTF-8"?>
<svg width="34px" height="34px" viewBox="0 0 34 34" version="1.1" xmlns="http://www.w3.org/2000/svg" xmlns:xlink="http://www.w3.org/1999/xlink">
    <!-- Generator: Sketch 50.2 (55047) - http://www.bohemiancoding.com/sketch -->
    <title>Kin_ecosystem_logo</title>
    <desc>Created with Sketch.</desc>
    <defs></defs>
    <g id="Banner-ads" stroke="none" stroke-width="1" fill="none" fill-rule="evenodd">
        <g id="Artboard">
            <g id="Kin_ecosystem_logo" transform="translate(-5.000000, -5.000000)">
                <rect id="Rectangle-2" fill="#FFFFFF" transform="translate(21.877715, 21.877715) rotate(-315.000000) translate(-21.877715, -21.877715) " x="7" y="7" width="29.75543" height="29.75543" rx="11"></rect>
                <path d="M25.8573322,20.1350264 L26.8924773,20.1350264 C27.5046598,20.1350264 28.0007662,19.635399 28.0007662,19.0193653 L28.0007662,16 L24.9474062,16 C24.3352236,16 23.8391172,16.4992273 23.8391172,17.115261 L23.8391172,18.1077154 C23.8391172,19.2273767 22.9931922,20.1914294 21.8805305,20.1914294 C20.7678688,20.1914294 19.8098428,19.2273767 19.8098428,18.1077154 L19.8098428,17.0752589 C19.8098428,16.4812263 19.3312273,16 18.7413059,16 L16,16 L16,28.349476 L18.7190447,28.349476 C19.3216868,28.349476 19.8098428,27.8578491 19.8098428,27.2518159 L19.8098428,26.322165 C19.8098428,25.1425005 20.6748488,24.1520462 21.7875105,24.1520462 L21.7875105,24.1560465 C22.9001723,24.1560465 23.8391172,25.1012982 23.8391172,26.2205595 L23.8391172,27.2426154 C23.8391172,27.8538489 24.3312484,28.349476 24.9386608,28.349476 L28.0007662,28.349476 L28.0007662,25.2961089 C28.0007662,24.6852754 27.5082375,24.1896483 26.9008252,24.1896483 L25.986129,24.1896483 C24.8734673,24.1896483 23.8391172,23.2819986 23.8391172,22.1623373 L23.8430924,22.1623373 C23.8430924,21.042676 24.7446704,20.1350264 25.8573322,20.1350264" id="Fill-51" fill="#044BFC"></path>
            </g>
        </g>
    </g>
</svg>