<?xml version="1.0" encoding="UTF-8"?>
<svg width="64px" height="64px" viewBox="0 0 64 64" version="1.1" xmlns="http://www.w3.org/2000/svg" xmlns:xlink="http://www.w3.org/1999/xlink">
    <!-- Generator: Sketch 53 (72520) - https://sketchapp.com -->
    <title>Fill 1 Copy 3</title>
    <desc>Created with Sketch.</desc>
    <defs>
        <path d="M184.532973,226.443532 C184.532973,227.317914 183.826228,228.02708 182.954143,228.02708 L181.479526,228.02708 C179.894523,228.02708 178.61018,229.315414 178.61018,230.90453 L178.604612,230.90453 C178.604612,232.493767 180.078018,233.782102 181.663021,233.782102 L182.966126,233.782102 C183.831311,233.782102 184.532973,234.485457 184.532973,235.352457 L184.532973,239.686486 L180.170854,239.686486 C179.305548,239.686486 178.604612,238.983009 178.604612,238.115405 L178.604612,236.664636 C178.604612,235.076004 177.267012,233.734413 175.682008,233.734413 L175.682008,233.728603 C174.096883,233.728603 172.864829,235.134587 172.864829,236.809035 L172.864829,238.128477 C172.864829,238.988698 172.16934,239.686486 171.310932,239.686486 L167.437568,239.686486 L167.437568,222.157918 L171.342523,222.157918 C172.183017,222.157918 172.864829,222.840939 172.864829,223.684094 L172.864829,225.149629 C172.864829,226.738624 174.229542,228.107086 175.814546,228.107086 C177.399428,228.107086 178.604612,226.738624 178.604612,225.149629 L178.604612,223.740861 C178.604612,222.866478 179.311237,222.157918 180.183321,222.157918 L184.532973,222.157918 L184.532973,226.443532 Z M201.355073,226.717079 C200.506348,223.955946 199.137399,221.575722 194.709314,217.182263 L189.670467,212.182885 C185.242382,207.789305 182.851502,206.43912 180.083828,205.612184 C177.316153,204.785127 174.489049,204.796142 171.727911,205.644864 C168.966773,206.493587 166.586544,207.862412 162.193076,212.29061 L157.182915,217.340219 C152.789326,221.768295 151.439138,224.15917 150.61208,226.926839 C149.785142,229.694507 149.796157,232.521727 150.644881,235.282738 C151.493606,238.043992 152.862555,240.424095 157.290761,244.817675 L162.329487,249.816932 C166.757693,254.210512 169.148452,255.560819 171.916248,256.387875 C174.683922,257.214932 177.511026,257.203797 180.272164,256.355074 C183.033181,255.506351 185.41341,254.137405 189.806999,249.709208 L194.81716,244.65972 C199.210628,240.231522 200.560816,237.840647 201.387874,235.072978 C202.214933,232.30531 202.203797,229.478211 201.355073,226.717079 L201.355073,226.717079 Z" id="path-1"></path>
        <filter x="-17.3%" y="-17.3%" width="134.6%" height="134.6%" filterUnits="objectBoundingBox" id="filter-2">
            <feOffset dx="0" dy="0" in="SourceAlpha" result="shadowOffsetOuter1"></feOffset>
            <feGaussianBlur stdDeviation="3" in="shadowOffsetOuter1" result="shadowBlurOuter1"></feGaussianBlur>
            <feColorMatrix values="0 0 0 0 0.571322279   0 0 0 0 0.571322279   0 0 0 0 0.571322279  0 0 0 0.5 0" type="matrix" in="shadowBlurOuter1"></feColorMatrix>
        </filter>
    </defs>
    <g id="Symbols" stroke="none" stroke-width="1" fill="none" fill-rule="evenodd">
        <g id="logos" transform="translate(-144.000000, -199.000000)">
            <g id="Fill-1-Copy-3">
                <use fill="black" fill-opacity="1" filter="url(#filter-2)" xlink:href="#path-1"></use>
                <use fill="#FFFFFF" fill-rule="evenodd" xlink:href="#path-1"></use>
            </g>
        </g>
    </g>
</svg>