<svg xmlns="http://www.w3.org/2000/svg" xmlns:xlink="http://www.w3.org/1999/xlink" width="65" height="65" viewBox="0 0 65 65">
    <defs>
        <path id="b" d="M35.197 21.856c0 .891-.72 1.614-1.61 1.614h-1.502a2.928 2.928 0 0 0-2.924 2.933h-.007c0 1.62 1.502 2.932 3.118 2.932H33.6a1.6 1.6 0 0 1 1.597 1.601v4.417h-4.446a1.6 1.6 0 0 1-1.597-1.601v-1.478c0-1.62-1.363-2.987-2.978-2.987v-.006c-1.616 0-2.872 1.433-2.872 3.14v1.345c0 .876-.708 1.587-1.583 1.587h-3.948V17.488h3.98c.857 0 1.551.696 1.551 1.555v1.494c0 1.62 1.391 3.015 3.007 3.015 1.615 0 2.843-1.395 2.843-3.015v-1.436c0-.891.721-1.613 1.61-1.613h4.433v4.368zm17.146.279c-.865-2.815-2.26-5.24-6.774-9.718L40.433 7.32c-4.513-4.478-6.95-5.854-9.77-6.697a14.478 14.478 0 0 0-8.517.033c-2.814.865-5.24 2.26-9.719 6.774l-5.106 5.146c-4.478 4.514-5.854 6.95-6.697 9.772a14.474 14.474 0 0 0 .033 8.516c.866 2.814 2.26 5.24 6.774 9.718l5.135 5.096c4.514 4.478 6.95 5.854 9.772 6.697a14.47 14.47 0 0 0 8.516-.033c2.815-.866 5.24-2.26 9.718-6.774l5.107-5.146c4.478-4.514 5.854-6.95 6.697-9.772a14.474 14.474 0 0 0-.033-8.516z"/>
        <filter id="a" width="134%" height="134%" x="-17%" y="-17%" filterUnits="objectBoundingBox">
            <feOffset in="SourceAlpha" result="shadowOffsetOuter1"/>
            <feGaussianBlur in="shadowOffsetOuter1" result="shadowBlurOuter1" stdDeviation="3"/>
            <feColorMatrix in="shadowBlurOuter1" values="0 0 0 0 0.571322279 0 0 0 0 0.571322279 0 0 0 0 0.571322279 0 0 0 0.5 0"/>
        </filter>
    </defs>
    <g fill="none" fill-rule="evenodd" transform="translate(6 6)">
        <use fill="#000" filter="url(#a)" xlink:href="#b"/>
        <use fill="#FFF" xlink:href="#b"/>
    </g>
</svg>
