<svg xmlns="http://www.w3.org/2000/svg" width="30" height="30" viewBox="0 0 30 30">
    <path fill="#1F1F1F" fill-rule="evenodd" d="M30 7.887a12.3 12.3 0 0 1-3.534.968 6.189 6.189 0 0 0 2.707-3.405 12.371 12.371 0 0 1-3.909 1.493A6.146 6.146 0 0 0 20.77 5a6.155 6.155 0 0 0-6.154 6.154c0 .482.053.953.159 1.404A17.473 17.473 0 0 1 2.089 6.125a6.118 6.118 0 0 0-.834 3.095 6.153 6.153 0 0 0 2.737 5.123 6.122 6.122 0 0 1-2.788-.77v.078a6.159 6.159 0 0 0 4.937 6.034 6.132 6.132 0 0 1-2.78.108 6.164 6.164 0 0 0 5.752 4.274A12.344 12.344 0 0 1 1.468 26.7C.97 26.7.48 26.673 0 26.615a17.417 17.417 0 0 0 9.433 2.765c11.322 0 17.514-9.38 17.514-17.512 0-.267-.006-.532-.017-.796A12.494 12.494 0 0 0 30 7.887"/>
</svg>
