<svg xmlns="http://www.w3.org/2000/svg" width="2000" height="2000" viewBox="0 0 2000 2000"><path d="M1432.26 727.3H1303.1V598.12a83 83 0 0183-83h46.2a83 83 0 0183 83v46.2a83 83 0 01-83 83M697 727.3H567.8a83 83 0 01-83-83v-46.2a82.94 82.94 0 0183-83H614a83 83 0 0183 83v129.2m-82.94 787.98h-46.2a83 83 0 01-83-83v-46.2a83 83 0 0183-83H697v129.22a83 83 0 01-83 83m818.26-.02h-46.2a83 83 0 01-83-83v-129.13h129.16a83 83 0 0183 83v46.2a83 83 0 01-83 83" fill="#005fff"/><path d="M1038.2 515.17H992a83 83 0 01-83-83V386a83 83 0 0183-83h46.2a83 83 0 0183 83v46.2a83 83 0 01-83 83m0 1212.09H992a83 83 0 01-83-83v-46.2a83 83 0 0183-83h46.2a83 83 0 0183 83v46.2a83 83 0 01-83 83m606.13-605.99h-46.2a83 83 0 01-83-83v-46.2a83 83 0 0183-83h46.2a83 83 0 0183 83v46.2a83 83 0 01-83 83m-1212.14 0H386a83 83 0 01-83-83v-46.2a83 83 0 0183-83h46.2a83 83 0 0183 83v46.2a83 83 0 01-83 83" fill="#0ce"/><path d="M1247.13 1811.11a60.59 60.59 0 1179.17 32.79 60.62 60.62 0 01-79.17-32.79M610.69 265.61a60.59 60.59 0 1179.17 32.79 60.62 60.62 0 01-79.17-32.79M1780.82 753a60.59 60.59 0 1132.79-79.17 60.61 60.61 0 01-32.79 79.17m-1515.2 636.33a60.59 60.59 0 1132.79-79.17 60.61 60.61 0 01-32.79 79.17" fill="#005fff"/><path d="M1734.43 1389.33a60.59 60.59 0 1179.17-32.78 60.59 60.59 0 01-79.17 32.78M219.24 753a60.59 60.59 0 1179.17-32.78A60.59 60.59 0 01219.24 753m1139.84-487.39a60.59 60.59 0 11-32.79-79.19 60.58 60.58 0 0132.79 79.19m-636.37 1545.5a60.59 60.59 0 11-32.79-79.19 60.58 60.58 0 0132.79 79.19" fill="#002dae"/><path d="M1645.23 1718.47a30.3 30.3 0 1142.85 0 30.29 30.29 0 01-42.85 0M281.6 354.77a30.3 30.3 0 1142.85 0 30.29 30.29 0 01-42.85 0m1406.58 0a30.3 30.3 0 110-42.85 30.3 30.3 0 010 42.85M324.47 1718.47a30.3 30.3 0 110-42.85 30.3 30.3 0 010 42.85" fill="#0099c0"/><path d="M1969.69 1030.34A30.3 30.3 0 112000 1000a30.31 30.31 0 01-30.31 30.3m-1939.38.04a30.3 30.3 0 1130.3-30.34 30.31 30.31 0 01-30.31 30.3m1000.01-1000A30.31 30.31 0 111000 0a30.31 30.31 0 0130.31 30.3m0 1939.4a30.31 30.31 0 11-30.31-30.3 30.31 30.31 0 0130.31 30.3" fill="#0029c0"/><path d="M1202.23 899h45.2a55.58 55.58 0 0055.57-55.59V697h-146.45a55.59 55.59 0 00-55.55 55.55V798a101 101 0 11-202 0v-47.46A53.6 53.6 0 00845.38 697H696.93v606h147.32a54.69 54.69 0 0054.7-54.7V1202a101 101 0 01101-101v.21a101 101 0 01101 101v45.67a55.14 55.14 0 0055.15 55.15H1303v-146.86a55.14 55.14 0 00-55.15-55.15H1202a101 101 0 01-101-101h.21a101 101 0 01101-101" fill="#003ec5"/></svg>