<svg width="34" height="34" viewBox="0 0 34 34" xmlns="http://www.w3.org/2000/svg"><g transform="translate(-5 -5)" fill="none" fill-rule="evenodd"><rect fill="#FFF" transform="rotate(45 21.878 21.878)" x="7" y="7" width="29.755" height="29.755" rx="11"/><path d="M25.857 20.135h1.035c.613 0 1.109-.5 1.109-1.116V16h-3.054c-.612 0-1.108.5-1.108 1.115v.993c0 1.12-.846 2.083-1.958 2.083-1.113 0-2.071-.964-2.071-2.083v-1.033c0-.594-.479-1.075-1.069-1.075H16v12.35h2.719c.603 0 1.09-.492 1.09-1.098v-.93c0-1.18.866-2.17 1.979-2.17v.004c1.112 0 2.051.945 2.051 2.065v1.022c0 .61.492 1.106 1.1 1.106H28v-3.053c0-.61-.493-1.106-1.1-1.106h-.915c-1.113 0-2.147-.908-2.147-2.028h.004a2.02 2.02 0 0 1 2.014-2.027" fill="#044BFC"/></g></svg>