<svg xmlns="http://www.w3.org/2000/svg" width="24" height="24" viewBox="0 0 32 32"><path d="M8 20a2 2 0 1 1 3.999-.001A2 2 0 0 1 8 20zm12 0a2 2 0 1 1 3.999-.001A2 2 0 0 1 20 20zm.097 4.274a1.188 1.188 0 0 1 1.47 1.866C20.133 27.27 17.948 28 16 28s-4.133-.73-5.567-1.86a1.188 1.188 0 0 1 1.47-1.866c.826.651 2.46 1.351 4.097 1.351s3.271-.7 4.097-1.351zM32 16a4 4 0 0 0-7.495-1.943c-2.056-1.125-4.561-1.851-7.29-2.019l2.387-5.36 4.569 1.319a3 3 0 1 0 .188-2.417l-5.091-1.47a1.187 1.187 0 0 0-1.414.658l-3.243 7.282c-2.661.187-5.102.907-7.114 2.007a4 4 0 1 0-5.109 5.603 7.334 7.334 0 0 0-.387 2.341c0 5.523 6.268 10 14 10s14-4.477 14-10a7.3 7.3 0 0 0-.387-2.34 4 4 0 0 0 2.387-3.66zM27 5.875a1.125 1.125 0 1 1 0 2.25 1.125 1.125 0 0 1 0-2.25zM2 16c0-1.103.897-2 2-2 .797 0 1.487.469 1.808 1.145-1.045.793-1.911 1.707-2.552 2.711A2.003 2.003 0 0 1 2 16zm14 13.625c-6.42 0-11.625-3.414-11.625-7.625S9.58 14.375 16 14.375 27.625 17.789 27.625 22 22.42 29.625 16 29.625zm12.744-11.769c-.641-1.003-1.507-1.918-2.552-2.711A2.003 2.003 0 0 1 28 14c1.103 0 2 .897 2 2 0 .84-.52 1.56-1.256 1.856z"/></svg>